<svg width="10" height="10" viewBox="0 0 10 10" fill="none" xmlns="http://www.w3.org/2000/svg">
<path d="M8.09802 6.43727L8.55574 6.63851L8.09802 6.43727ZM8.07725 6.83518L8.54864 6.66846L8.07725 6.83518ZM7.96717 8.92421L7.81731 9.40122L7.96717 8.92421ZM5.99547 8.4355L5.80984 7.97124L5.99547 8.4355ZM4.45894 9.22869C5.06826 9.22869 5.65049 9.11192 6.1811 8.89976L5.80984 7.97124C5.39622 8.13662 4.93992 8.22869 4.45894 8.22869V9.22869ZM0.0214844 5.01766C0.0214844 7.37083 2.03651 9.22869 4.45894 9.22869V8.22869C2.53217 8.22869 1.02148 6.76358 1.02148 5.01766H0.0214844ZM4.45894 0.806641C2.03651 0.806641 0.0214844 2.66449 0.0214844 5.01766H1.02148C1.02148 3.27175 2.53217 1.80664 4.45894 1.80664V0.806641ZM8.89639 5.01766C8.89639 2.66449 6.88136 0.806641 4.45894 0.806641V1.80664C6.3857 1.80664 7.89639 3.27175 7.89639 5.01766H8.89639ZM8.55574 6.63851C8.77513 6.1395 8.89639 5.59163 8.89639 5.01766H7.89639C7.89639 5.44935 7.80544 5.86043 7.64031 6.23604L8.55574 6.63851ZM7.60587 7.00189L8.11703 8.44719L9.0598 8.11376L8.54864 6.66846L7.60587 7.00189ZM8.11703 8.44719L6.50446 7.94058L6.20474 8.89461L7.81731 9.40122L8.11703 8.44719ZM7.64031 6.23604C7.54028 6.46354 7.51243 6.73771 7.60587 7.00189L8.54864 6.66846C8.54932 6.67037 8.54849 6.66949 8.54879 6.66442C8.54911 6.65896 8.55075 6.64986 8.55574 6.63851L7.64031 6.23604ZM8.11703 8.44719V8.44719L7.81731 9.40122C8.60384 9.64832 9.3347 8.89101 9.0598 8.11376L8.11703 8.44719ZM6.1811 8.89976C6.20046 8.89202 6.20847 8.89578 6.20474 8.89461L6.50446 7.94058C6.26524 7.86542 6.01968 7.88733 5.80984 7.97124L6.1811 8.89976Z" fill="#999999"/>
</svg>
