<svg width="16" height="11" viewBox="0 0 16 11" fill="none" xmlns="http://www.w3.org/2000/svg">
<path d="M15.137 5.26501C15.137 5.33576 15.1118 5.4709 15.0256 5.67394C14.9423 5.87033 14.8138 6.10268 14.6393 6.35899C14.2905 6.87142 13.7771 7.45169 13.1353 7.99724C11.8458 9.09335 10.0976 10.0007 8.2013 10.0007C6.30498 10.0007 4.55679 9.09335 3.26732 7.99724C2.62554 7.45169 2.1121 6.87142 1.76329 6.35899C1.58882 6.10268 1.4603 5.87033 1.37698 5.67394C1.29084 5.4709 1.26562 5.33576 1.26562 5.26501C1.26562 5.19425 1.29084 5.05912 1.37698 4.85608C1.4603 4.65969 1.58882 4.42734 1.76329 4.17103C2.1121 3.6586 2.62554 3.07832 3.26732 2.53278C4.55679 1.43667 6.30498 0.529297 8.2013 0.529297C10.0976 0.529297 11.8458 1.43667 13.1353 2.53278C13.7771 3.07832 14.2905 3.6586 14.6393 4.17103C14.8138 4.42734 14.9423 4.65969 15.0256 4.85608C15.1118 5.05912 15.137 5.19425 15.137 5.26501Z" stroke="#999999"/>
<path d="M10.5615 5.26629C10.5615 6.39526 9.54753 7.38415 8.20167 7.38415C6.85582 7.38415 5.8418 6.39526 5.8418 5.26629C5.8418 4.13733 6.85582 3.14844 8.20167 3.14844C9.54753 3.14844 10.5615 4.13733 10.5615 5.26629Z" stroke="#999999"/>
</svg>
